<svg width="160" height="173" viewBox="0 0 160 173" fill="none" xmlns="http://www.w3.org/2000/svg">
<path fill-rule="evenodd" clip-rule="evenodd" d="M0 13C0 5.8203 5.8203 0 13 0H111C118.18 0 124 5.8203 124 13V39C124 42.3137 121.314 45 118 45C114.686 45 112 42.3137 112 39V23C112 17.4772 107.523 13 102 13H24C18.4772 13 14 17.4771 14 23V150C14 155.523 18.4772 160 24 160H102C107.523 160 112 155.523 112 150V134C112 130.686 114.686 128 118 128C121.314 128 124 130.686 124 134V160C124 167.18 118.18 173 111 173H13C5.8203 173 0 167.18 0 160V13ZM154 93C157.314 93 160 90.3137 160 87C160 83.6863 157.314 81 154 81L56.4853 81L84.4264 53.0589C86.7696 50.7157 86.7696 46.9167 84.4264 44.5736C82.0833 42.2305 78.2843 42.2305 75.9411 44.5736L37.7574 82.7574C35.4142 85.1005 35.4142 88.8995 37.7574 91.2427L75.9411 129.426C78.2843 131.77 82.0833 131.77 84.4264 129.426C86.7696 127.083 86.7696 123.284 84.4264 120.941L56.4853 93L154 93Z" fill="#85FFF9"/>
</svg>
