<svg width="188" height="173" viewBox="0 0 188 173" fill="none" xmlns="http://www.w3.org/2000/svg">
<path fill-rule="evenodd" clip-rule="evenodd" d="M0 13C0 5.8203 5.8203 0 13 0H111C118.18 0 124 5.8203 124 13V39C124 42.3137 121.314 45 118 45C114.686 45 112 42.3137 112 39V23C112 17.4772 107.523 13 102 13H24C18.4772 13 14 17.4771 14 23V150C14 155.523 18.4772 160 24 160H102C107.523 160 112 155.523 112 150V134C112 130.686 114.686 128 118 128C121.314 128 124 130.686 124 134V160C124 167.18 118.18 173 111 173H13C5.8203 173 0 167.18 0 160V13ZM70 81H167.515L139.574 53.0589C137.23 50.7157 137.23 46.9167 139.574 44.5736C141.917 42.2304 145.716 42.2304 148.059 44.5736L186.243 82.7574C188.586 85.1005 188.586 88.8995 186.243 91.2426L148.059 129.426C145.716 131.77 141.917 131.77 139.574 129.426C137.23 127.083 137.23 123.284 139.574 120.941L167.515 93H70C66.6863 93 64 90.3137 64 87C64 83.6863 66.6863 81 70 81Z" fill="#00B8AE"/>
</svg>
