<svg width="68" height="70" viewBox="0 0 68 70" fill="none" xmlns="http://www.w3.org/2000/svg">
<path d="M13 0C5.8203 0 0 5.8203 0 13V57C0 64.1797 5.8203 70 13 70H42C44.2664 70 46.3974 69.42 48.2526 68.4004C46.0538 67.291 44.1653 65.6565 42.7519 63.6615C41.0179 64.5184 39.0652 65 37 65H18C10.8203 65 5 59.1797 5 52V18C5 10.8203 10.8203 5 18 5H37C44.1797 5 50 10.8203 50 18V40.8535C51.5639 40.3008 53.2468 40 55 40V13C55 5.8203 49.1797 0 42 0H13Z" fill="#06B0A7"/>
<path d="M9 17H44V22H9V17Z" fill="#06B0A7"/>
<path d="M31 30H9V35H31V30Z" fill="#06B0A7"/>
<path fill-rule="evenodd" clip-rule="evenodd" d="M55 68C62.1797 68 68 62.1797 68 55C68 47.8203 62.1797 42 55 42C47.8203 42 42 47.8203 42 55C42 62.1797 47.8203 68 55 68ZM55 65C60.5228 65 65 60.5228 65 55C65 49.4772 60.5228 45 55 45C49.4772 45 45 49.4772 45 55C45 60.5228 49.4772 65 55 65Z" fill="#06B0A7"/>
<path d="M55 49C54.4477 49 54 49.4477 54 50V54H50C49.4477 54 49 54.4477 49 55C49 55.5523 49.4477 56 50 56H54V60C54 60.5523 54.4477 61 55 61C55.5523 61 56 60.5523 56 60V56H60C60.5523 56 61 55.5523 61 55C61 54.4477 60.5523 54 60 54H56V50C56 49.4477 55.5523 49 55 49Z" fill="#06B0A7"/>
</svg>
