<svg width="76" height="70" viewBox="0 0 76 70" fill="none" xmlns="http://www.w3.org/2000/svg">
<path d="M6.00003 35C6.00003 54.33 21.6701 70 41 70C60.33 70 76 54.33 76 35C76 15.67 60.33 0 41 0V13.0223C52.6862 13.5451 62 23.1849 62 35C62 47.1503 52.1503 57 40 57C27.8498 57 18 47.1503 18 35H6.00003Z" fill="#00B8AE"/>
<path d="M12 16L23.2584 35.5H0.741699L12 16Z" fill="#00B8AE"/>
<path d="M48 6.5C48 10.0899 45.0899 13 41.5 13C37.9102 13 35 10.0899 35 6.5C35 2.91015 37.9102 0 41.5 0C45.0899 0 48 2.91015 48 6.5Z" fill="#00B8AE"/>
</svg>
