<svg width="70" height="70" viewBox="0 0 70 70" fill="none" xmlns="http://www.w3.org/2000/svg">
<path d="M51.5541 21.1519L70 10.5759L51.5541 0V4.5788C41.719 4.69892 35.0621 8.57229 30.5159 14.5927C26.6776 19.6756 24.4983 26.1832 22.6694 31.6443C22.5064 32.1311 22.3461 32.6097 22.1877 33.0782C20.0794 39.3136 18.1794 44.2634 15.029 47.8016C12.2267 50.949 8.00177 53.4241 0 53.4241V65.4241C10.9922 65.4241 18.6386 61.7931 23.9913 55.7815C28.9959 50.1607 31.5347 42.8984 33.5555 36.9218C33.6604 36.6115 33.764 36.3045 33.8665 36.001C35.9057 29.9594 37.4873 25.2738 40.0922 21.8242C42.3327 18.8572 45.4463 16.6861 51.5541 16.58V21.1519Z" fill="#85FFF9"/>
<path d="M20.4393 32.0038C18.9213 28.0332 17.3001 24.749 15.029 22.1984C12.2267 19.051 8.00177 16.5759 0 16.5759V4.57594C10.9922 4.57594 18.6386 8.20686 23.9913 14.2185C24.862 15.1965 25.6581 16.2242 26.3899 17.2861C23.8473 21.813 22.1752 26.8141 20.7831 30.9776C20.6666 31.3258 20.5522 31.6681 20.4393 32.0038Z" fill="#85FFF9"/>
<path d="M28.7435 52.7826C29.293 53.6889 29.8818 54.5676 30.5159 55.4073C35.0621 61.4277 41.719 65.3011 51.5541 65.4212V70L70 59.4241L51.5541 48.8481V53.42C45.4463 53.3139 42.3327 51.1428 40.0922 48.1758C38.1093 45.5499 36.7194 42.2079 35.2692 38.0968C33.7532 42.5666 31.8531 47.9221 28.7435 52.7826Z" fill="#85FFF9"/>
</svg>
