<svg width="109" height="76" viewBox="0 0 109 76" fill="none" xmlns="http://www.w3.org/2000/svg">
<path fill-rule="evenodd" clip-rule="evenodd" d="M109 11.2583L89.5 22.5167V17.2583H76C66.9626 17.2583 61.2578 20.0342 56.9427 23.9717C53.416 27.1896 50.6531 31.312 47.8771 36.1023C51.3588 42.4016 54.3862 47.7049 58.4779 51.6658C62.5116 55.5707 67.7103 58.2582 76.0001 58.2583H89.5V53L109 64.2583L89.5 75.5167V70.2583H75.9999C64.5397 70.2581 56.3634 66.3205 50.1315 60.2878C46.4708 56.744 43.5404 52.5132 41 48.2837C38.4596 52.5132 35.5292 56.744 31.8685 60.2878C25.6366 66.3205 17.4603 70.2581 6.0001 70.2583C2.68629 70.2583 0 67.572 0 64.2583C0 60.9446 2.68629 58.2583 5.9999 58.2583C14.2897 58.2582 19.4884 55.5707 23.5221 51.6658C27.6138 47.7049 30.6412 42.4017 34.1229 36.1023C31.3469 31.312 28.584 27.1896 25.0573 23.9717C20.7422 20.0342 15.0374 17.2583 6 17.2583C2.68629 17.2583 0 14.572 0 11.2583C0 7.94462 2.68629 5.25833 6 5.25833C17.9626 5.25833 26.5703 9.10738 33.1458 15.1073C36.2074 17.9009 38.7662 21.1147 41 24.4272C43.2338 21.1147 45.7926 17.9009 48.8542 15.1073C55.4297 9.10738 64.0374 5.25833 76 5.25833H89.5V0L109 11.2583Z" fill="#85FFF9"/>
</svg>
