<svg width="70" height="70" viewBox="0 0 70 70" fill="none" xmlns="http://www.w3.org/2000/svg">
<path fill-rule="evenodd" clip-rule="evenodd" d="M70 11.3156L51.5541 22.6313V17.3201C45.6114 17.4324 42.5122 19.6742 40.2061 22.9417C38.0143 26.0474 36.5346 30.0702 34.943 35C36.5346 39.9298 38.0143 43.9527 40.2061 47.0583C42.5122 50.3258 45.6114 52.5676 51.5541 52.6799V47.3687L70 58.6844L51.5541 70V64.6813C41.5534 64.5523 34.8815 60.3247 30.402 53.9777C29.878 53.2353 29.3853 52.4642 28.9205 51.671C27.6158 54.3422 26.0551 56.9291 24.1221 59.252C18.8152 65.629 11.1345 69.5804 0 69.5804V57.5804C7.85952 57.5804 12.05 54.9986 14.8982 51.576C18.1099 47.7166 20.0405 42.3168 22.1505 35.64C22.2174 35.4284 22.2846 35.215 22.3521 35C22.2846 34.785 22.2174 34.5716 22.1505 34.36C20.0405 27.6832 18.1099 22.2834 14.8982 18.424C12.05 15.0014 7.85952 12.4197 0 12.4197V0.419664C11.1345 0.419664 18.8152 4.37099 24.1221 10.7481C26.0551 13.071 27.6158 15.6578 28.9205 18.3291C29.3853 17.5359 29.878 16.7647 30.402 16.0223C34.8815 9.67529 41.5534 5.44773 51.5541 5.31869V0L70 11.3156Z" fill="#00B8AE"/>
</svg>
