<svg width="109" height="77" viewBox="0 0 109 77" fill="none" xmlns="http://www.w3.org/2000/svg">
<path fill-rule="evenodd" clip-rule="evenodd" d="M109 12L89.5 23.2583V18H76C66.9626 18 61.2578 20.7759 56.9427 24.7133C53.416 27.9313 50.6531 32.0536 47.8771 36.844C51.3588 43.1433 54.3862 48.4466 58.4779 52.4075C62.5116 56.3123 67.7103 58.9999 76.0001 59H89.5V53.7417L109 65L89.5 76.2583V71H75.9999C64.5397 70.9998 56.3634 67.0622 50.1315 61.0294C46.4708 57.4857 43.5404 53.2548 41 49.0254C38.4596 53.2548 35.5292 57.4857 31.8685 61.0294C25.6366 67.0622 17.4603 70.9998 6.00009 71C2.68628 71 0 68.3137 0 65C0 61.6863 2.68628 59 5.99991 59C14.2897 58.9999 19.4884 56.3123 23.5221 52.4075C27.6138 48.4466 30.6412 43.1433 34.1229 36.844C31.3469 32.0536 28.584 27.9313 25.0573 24.7133C20.7422 20.7759 15.0374 18 6 18C2.68628 18 0 15.3137 0 12C0 8.68628 2.68628 6 6 6C17.9626 6 26.5703 9.84906 33.1458 15.849C36.2074 18.6426 38.7662 21.8564 41 25.1689C43.2338 21.8564 45.7926 18.6426 48.8542 15.849C55.4297 9.84906 64.0374 6 76 6H89.5V0.741669L109 12Z" fill="#00B8AE"/>
</svg>
