<svg width="135" height="138" viewBox="0 0 135 138" fill="none" xmlns="http://www.w3.org/2000/svg">
<path fill-rule="evenodd" clip-rule="evenodd" d="M127.5 15C131.642 15 135 11.6421 135 7.5C135 3.35786 131.642 0 127.5 0C123.358 0 120 3.35786 120 7.5C120 9.1646 120.542 10.7025 121.46 11.9468L97.8016 39.3554C96.5838 38.5013 95.1004 38 93.5 38C90.4631 38 87.8478 39.8049 86.6684 42.4006L51.7636 30.6244C50.9308 27.3899 47.9945 25 44.5 25C40.3579 25 37 28.3579 37 32.5C37 32.7457 37.0118 32.9886 37.0349 33.2282L11.0188 57.875C9.96947 57.3165 8.7717 57 7.5 57C3.35786 57 0 60.3579 0 64.5C0 68.6421 3.35786 72 7.5 72C11.6421 72 15 68.6421 15 64.5C15 63.8431 14.9155 63.2059 14.7569 62.5987L40.109 38.5809C41.3433 39.4738 42.8602 40 44.5 40C47.1201 40 49.4265 38.6564 50.7676 36.6206L86.7427 48.7579C87.9552 51.2683 90.5254 53 93.5 53C97.6421 53 101 49.6421 101 45.5C101 45.2856 100.991 45.0732 100.973 44.8633L126.78 14.9659C127.017 14.9885 127.257 15 127.5 15ZM115 42H135V138H115V42ZM57 63H77V138H57V63ZM106 138V75H86V138H106ZM28 91H48V138H28V91Z" fill="#85FFF9"/>
</svg>
